<svg xmlns="http://www.w3.org/2000/svg" width="60" height="61" fill="none"><path fill="#F8F7F8" d="M8 1.63h44a7 7 0 0 1 7 7v44a7 7 0 0 1-7 7H8a7 7 0 0 1-7-7v-44a7 7 0 0 1 7-7Z"/><path stroke="#fff" stroke-width="2" d="M8 1.63h44a7 7 0 0 1 7 7v44a7 7 0 0 1-7 7H8a7 7 0 0 1-7-7v-44a7 7 0 0 1 7-7Z"/><path fill="#000" fill-rule="evenodd" d="m24.54 37.22 15.956-11.793c.782-.58 1.9-.354 2.274.544 1.96 4.738 1.084 10.43-2.82 14.338-3.902 3.908-9.334 4.764-14.298 2.812l-5.422 2.514c7.778 5.322 17.222 4.006 23.124-1.906 4.682-4.688 6.132-11.078 4.776-16.84l.012.014c-1.966-8.464.484-11.848 5.5-18.766.12-.164.24-.328.358-.496l-6.602 6.61v-.02L24.534 37.225m-3.288 2.862c-5.584-5.34-4.62-13.602.142-18.368 3.522-3.526 9.294-4.966 14.332-2.85l5.41-2.5a15.621 15.621 0 0 0-3.658-2A17.95 17.95 0 0 0 17.968 18.3c-5.066 5.072-6.66 12.872-3.924 19.528 2.044 4.974-1.306 8.492-4.68 12.044-1.198 1.26-2.398 2.518-3.364 3.85l15.24-13.63" clip-rule="evenodd"/></svg>