<svg xmlns="http://www.w3.org/2000/svg" width="68" height="69" fill="none"><g filter="url(#a)"><path fill="#F8F7F8" d="M4 8a8 8 0 0 1 8-8h44a8 8 0 0 1 8 8v44.63a8 8 0 0 1-8 8H12a8 8 0 0 1-8-8V8Z"/><path stroke="#fff" stroke-width="2" d="M12 1h44a7 7 0 0 1 7 7v44.63a7 7 0 0 1-7 7H12a7 7 0 0 1-7-7V8a7 7 0 0 1 7-7Z"/><path fill="#000" d="M56.937 29.124a12.279 12.279 0 0 1 .999 3.717 12.24 12.24 0 0 1-.208 3.845 12.181 12.181 0 0 1-1.385 3.59 12.136 12.136 0 0 1-1.506 2.09 12.316 12.316 0 0 1-1.907 1.724 12.19 12.19 0 0 1-4.686 2.064 12.189 12.189 0 0 1-1.745 3.434 12.13 12.13 0 0 1-2.718 2.718 12.16 12.16 0 0 1-3.429 1.745c-1.227.4-2.51.599-3.803.599-.858.005-1.72-.087-2.562-.26a12.19 12.19 0 0 1-4.671-2.09 12.053 12.053 0 0 1-1.896-1.733c-1.268.274-2.567.34-3.85.208a12.347 12.347 0 0 1-3.722-1 12.177 12.177 0 0 1-3.226-2.1 12.414 12.414 0 0 1-2.42-2.996 12.148 12.148 0 0 1-1.588-7.435c.093-.852.28-1.694.55-2.511a12.433 12.433 0 0 1-2.1-3.226 12.307 12.307 0 0 1-.792-7.561 12.181 12.181 0 0 1 1.385-3.591c.426-.746.928-1.45 1.501-2.09a12.352 12.352 0 0 1 1.912-1.724 12.02 12.02 0 0 1 4.686-2.064 12.24 12.24 0 0 1 1.74-3.434 12.39 12.39 0 0 1 2.723-2.723 12.431 12.431 0 0 1 3.429-1.745 12.243 12.243 0 0 1 3.804-.593c.857-.005 1.719.08 2.56.258a12.23 12.23 0 0 1 2.45.792 12.093 12.093 0 0 1 4.129 3.027 12.31 12.31 0 0 1 7.562.791 12.303 12.303 0 0 1 5.644 5.093 12.216 12.216 0 0 1 1.593 4.863 12.164 12.164 0 0 1-.553 5.092 12.222 12.222 0 0 1 2.1 3.226Zm-16.899 21.65a9.094 9.094 0 0 0 2.957-1.977 9.15 9.15 0 0 0 2.673-6.451v-11.31a.5.5 0 0 1-.01-.036.131.131 0 0 0-.016-.03.091.091 0 0 0-.025-.025.08.08 0 0 0-.03-.02l-4.094-2.364v13.663c0 .137-.02.279-.055.41a1.503 1.503 0 0 1-.157.386 1.624 1.624 0 0 1-.583.583l-9.693 5.594c-.08.051-.218.122-.289.163.4.34.837.639 1.294.903.461.263.938.486 1.435.669a9.159 9.159 0 0 0 3.104.543 9.06 9.06 0 0 0 3.489-.7Zm-23.081-7.678a9.194 9.194 0 0 0 2.348 2.673 9.111 9.111 0 0 0 6.74 1.806 9.149 9.149 0 0 0 3.368-1.142l9.798-5.654.026-.026a.064.064 0 0 0 .015-.03.131.131 0 0 0 .015-.03v-4.768L27.44 42.767a1.791 1.791 0 0 1-.38.162 1.64 1.64 0 0 1-.416.05c-.137 0-.274-.015-.411-.05a1.832 1.832 0 0 1-.386-.162l-9.692-5.6a8.44 8.44 0 0 1-.284-.172 9.159 9.159 0 0 0-.136 1.577 9.166 9.166 0 0 0 .552 3.104c.183.497.406.974.67 1.43v-.01ZM14.41 21.947a9.173 9.173 0 0 0-1.141 3.373 9.118 9.118 0 0 0 4.478 9.083l9.793 5.66c.01.004.022.007.036.01h.035a.063.063 0 0 0 .036-.01.128.128 0 0 0 .03-.015l4.108-2.373-11.827-6.827a1.966 1.966 0 0 1-.33-.253 1.624 1.624 0 0 1-.253-.33 1.71 1.71 0 0 1-.157-.386 1.386 1.386 0 0 1-.051-.41V17.95a9.229 9.229 0 0 0-1.435.67 9.585 9.585 0 0 0-1.294.912c-.4.34-.775.715-1.115 1.121-.34.4-.64.837-.903 1.293h-.01Zm33.64 7.831a1.596 1.596 0 0 1 .746.969c.03.137.05.274.045.416V42.68a9.087 9.087 0 0 0 4.098-3.027 9.129 9.129 0 0 0 .837-9.748 9.08 9.08 0 0 0-3.525-3.677l-9.793-5.66a.542.542 0 0 0-.036-.01h-.035a.44.44 0 0 1-.036.01.128.128 0 0 0-.03.015l-4.088 2.364 11.827 6.831h-.01Zm4.083-6.137h-.005v.005l.005-.005Zm-.005-.005a9.122 9.122 0 0 0-8.591-10.656 9.18 9.18 0 0 0-4.95 1.213l-9.794 5.655a.09.09 0 0 0-.025.025l-.02.03a.525.525 0 0 0-.016.072V24.7l11.828-6.83c.122-.071.254-.122.386-.163.137-.035.274-.05.41-.05.143 0 .28.015.416.05.132.041.26.092.38.163l9.693 5.599c.086.05.213.122.284.167Zm-25.627-5.234a1.636 1.636 0 0 1 .213-.796 1.73 1.73 0 0 1 .253-.33c.097-.096.208-.182.33-.248l9.692-5.594a4.27 4.27 0 0 1 .289-.162 9.07 9.07 0 0 0-4.671-2.04 9.118 9.118 0 0 0-10.28 9.048v11.31a.56.56 0 0 0 .01.036.13.13 0 0 0 .015.03.2.2 0 0 0 .025.03.119.119 0 0 0 .03.021l4.094 2.363V18.402Zm2.221 14.947 5.27 3.043 5.269-3.044v-6.08l-5.264-3.044-5.27 3.043-.005 6.082Z"/></g><defs><filter id="a" width="68" height="68.631" x="0" y="0" color-interpolation-filters="sRGB" filterUnits="userSpaceOnUse"><feFlood flood-opacity="0" result="BackgroundImageFix"/><feColorMatrix in="SourceAlpha" result="hardAlpha" values="0 0 0 0 0 0 0 0 0 0 0 0 0 0 0 0 0 0 127 0"/><feOffset dy="4"/><feGaussianBlur stdDeviation="2"/><feComposite in2="hardAlpha" operator="out"/><feColorMatrix values="0 0 0 0 0 0 0 0 0 0 0 0 0 0 0 0 0 0 0.04 0"/><feBlend in2="BackgroundImageFix" result="effect1_dropShadow_6416_1997"/><feBlend in="SourceGraphic" in2="effect1_dropShadow_6416_1997" result="shape"/></filter></defs></svg>